<svg width="301" height="319" viewBox="0 0 301 319" fill="none" xmlns="http://www.w3.org/2000/svg">
<path d="M150.02 318.565C232.863 318.565 300.02 310.753 300.02 301.117C300.02 291.481 232.863 283.669 150.02 283.669C67.1773 283.669 0.019989 291.481 0.019989 301.117C0.019989 310.753 67.1773 318.565 150.02 318.565Z" fill="#F9BB8D"/>
<path d="M97.774 105.199C96.528 98.922 90.552 93.078 82.352 94.87C74.161 96.667 74.131 104.308 75.377 110.592C75.447 110.917 79.478 127.894 81.849 131.463C84.216 135.041 87.654 141.829 93.417 139.895C97.229 138.616 99.473 131.827 100.375 126.927C101.276 122.025 97.774 105.199 97.774 105.199Z" fill="#F9BB8D"/>
<path d="M202.1 104.944C203.347 98.666 209.321 92.823 217.521 94.616C225.72 96.41 226.523 104.276 225.281 110.551C225.212 110.884 220.854 126.595 218.81 131.432C217.128 135.415 212.549 142.429 206.598 139.976C202.878 138.441 200.401 131.569 199.498 126.669C198.598 121.77 202.1 104.944 202.1 104.944Z" fill="#F9BB8D"/>
<path d="M22.461 297.205H276.737C276.737 297.205 271.725 234.791 263.383 225.438C255.037 216.085 191.473 195.175 191.473 195.175L108.392 194.934C108.392 194.934 41.508 214.508 36.94 225.438C32.371 236.366 22.461 297.205 22.461 297.205Z" fill="#259DAB"/>
<path d="M117.38 190.849C117.38 190.849 138.325 208.024 150.073 208.024C161.818 208.024 182.758 190.849 182.758 190.849C182.758 190.849 173.896 180.534 180.005 166.982C186.113 153.433 111.88 154.543 120.51 166.982C129.136 179.422 117.38 190.849 117.38 190.849Z" fill="#D99870"/>
<path d="M113.247 189.633L108.392 194.934C108.392 194.934 122.865 230.681 135.433 235.211C139.27 236.596 147.267 218.88 150.055 218.88C151.4 218.88 162.196 237.673 163.836 237.3C176.71 234.364 191.473 195.175 191.473 195.175L186.031 191.047L150.055 213.689L113.247 189.633Z" fill="#C5D2DB"/>
<path d="M210.104 57.97C210.104 30.731 193.229 3.401 148.551 3.401C103.873 3.401 87.651 33.308 87.651 60.55C87.651 61.98 87.513 136.05 96.189 153.058C104.863 170.062 128.742 187.42 150.068 187.5C173.389 187.592 194.346 172.611 204.138 153.058C213.933 133.499 210.104 57.97 210.104 57.97Z" fill="#F9BB8D"/>
<path d="M220.099 51.474C214.601 21.487 190.112 -0.255001 150.07 -0.00600064C110.144 0.243999 83.902 24.715 78.656 52.472C76.407 64.36 74.67 86.959 75.594 100.429C82.353 94.871 85.14 94.148 88.413 95.451C90.652 119.945 95.981 119.577 95.981 119.577C95.981 119.577 96.472 102.943 97.559 91.951C98.648 80.962 116.641 78.965 125.637 59.96C154.127 58.721 172.117 95.207 203.355 97.205C200.265 115.263 207.106 122.447 207.106 122.447C207.106 122.447 207.831 107.529 210.351 100.454C212.548 94.289 219.1 94.289 222.339 96.963C223.895 85.744 223.137 68.041 220.099 51.474Z" fill="#3D2216"/>
<path d="M113.247 181.137L108.392 194.934C108.392 194.934 122.865 222.185 135.433 226.715C139.27 228.1 147.267 210.386 150.055 210.386C151.4 210.386 162.196 229.18 163.836 228.804C176.71 225.868 191.473 195.175 191.473 195.175L186.031 182.551L150.055 205.194L113.247 181.137Z" fill="white"/>
</svg>
