<svg width="255" height="298" viewBox="0 0 255 298" fill="none" xmlns="http://www.w3.org/2000/svg">
<path d="M75.774 105.199C74.528 98.922 68.552 93.078 60.352 94.87C52.161 96.667 52.131 104.308 53.377 110.592C53.447 110.917 57.478 127.894 59.849 131.463C62.216 135.041 65.654 141.829 71.417 139.895C75.229 138.616 77.473 131.827 78.375 126.927C79.276 122.025 75.774 105.199 75.774 105.199Z" fill="#F9BB8D"/>
<path d="M180.1 104.944C181.347 98.666 187.321 92.823 195.521 94.616C203.72 96.41 204.523 104.276 203.281 110.551C203.212 110.884 198.854 126.595 196.81 131.432C195.128 135.415 190.549 142.429 184.598 139.976C180.878 138.441 178.401 131.569 177.498 126.669C176.598 121.77 180.1 104.944 180.1 104.944Z" fill="#F9BB8D"/>
<path d="M6.5366 262.451C3.14891 280.632 17.2495 297.205 35.7431 297.205H222.231C239.747 297.205 253.57 282.25 251.197 264.896C248.901 248.104 245.56 230.121 241.383 225.438C234.389 217.6 188.613 201.645 173.97 196.682C170.981 195.67 167.866 195.17 164.71 195.161L90.7361 194.947C87.855 194.938 85.0066 195.338 82.2512 196.179C67.5904 200.656 18.8173 216.161 14.94 225.438C12.7913 230.577 9.4615 246.754 6.5366 262.451Z" fill="#259DAB"/>
<path d="M95.38 190.849C95.38 190.849 116.325 208.024 128.073 208.024C139.818 208.024 160.758 190.849 160.758 190.849C160.758 190.849 151.896 180.534 158.005 166.982C164.113 153.433 89.88 154.543 98.51 166.982C107.136 179.422 95.38 190.849 95.38 190.849Z" fill="#D99870"/>
<path d="M91.247 189.633L86.392 194.934C86.392 194.934 100.865 230.681 113.433 235.211C117.27 236.596 125.267 218.88 128.055 218.88C129.4 218.88 140.196 237.673 141.836 237.3C154.71 234.364 169.473 195.175 169.473 195.175L164.031 191.047L128.055 213.689L91.247 189.633Z" fill="#C5D2DB"/>
<path d="M188.104 57.97C188.104 30.731 171.229 3.401 126.551 3.401C81.873 3.401 65.651 33.308 65.651 60.55C65.651 61.98 65.513 136.05 74.189 153.058C82.863 170.062 106.742 187.42 128.068 187.5C151.389 187.592 172.346 172.611 182.138 153.058C191.933 133.499 188.104 57.97 188.104 57.97Z" fill="#F9BB8D"/>
<path d="M198.099 51.474C192.601 21.487 168.112 -0.255001 128.07 -0.00600064C88.144 0.243999 61.902 24.715 56.656 52.472C54.407 64.36 52.67 86.959 53.594 100.429C60.353 94.871 63.14 94.148 66.413 95.451C68.652 119.945 73.981 119.577 73.981 119.577C73.981 119.577 74.472 102.943 75.559 91.951C76.648 80.962 94.641 78.965 103.637 59.96C132.127 58.721 150.117 95.207 181.355 97.205C178.265 115.263 185.106 122.447 185.106 122.447C185.106 122.447 185.831 107.529 188.351 100.454C190.548 94.289 197.1 94.289 200.339 96.963C201.895 85.744 201.137 68.041 198.099 51.474Z" fill="#3D2216"/>
<path d="M91.247 181.137L86.392 194.934C86.392 194.934 100.865 222.185 113.433 226.715C117.27 228.1 125.267 210.386 128.055 210.386C129.4 210.386 140.196 229.18 141.836 228.804C154.71 225.868 169.473 195.175 169.473 195.175L164.031 182.551L128.055 205.194L91.247 181.137Z" fill="white"/>
</svg>
