<svg width="278" height="201" viewBox="0 0 278 201" fill="none" xmlns="http://www.w3.org/2000/svg">
<path d="M127.853 51.257C127.853 51.5355 127.863 51.8156 127.874 52.1056L127.921 53.5724C128.289 68.7222 124.772 83.6988 117.219 96.8605L106.663 115.253L106.662 115.254C103.728 120.336 107.195 126.73 113.066 127.056H113.067L131.849 128.104L132.321 128.13V140.608C132.321 141.5 133.043 142.226 133.95 142.226H177.179L176.088 143.113L175.772 142.726L176.087 143.114L176.086 143.115C176.085 143.116 176.084 143.116 176.083 143.117L176.029 143.161C175.991 143.191 175.935 143.236 175.861 143.293C175.714 143.408 175.497 143.576 175.213 143.789C174.645 144.215 173.81 144.823 172.741 145.55C170.603 147.003 167.524 148.937 163.755 150.86C156.224 154.704 145.905 158.526 134.823 158.362H134.822C133.318 158.335 132.062 159.531 131.986 161.054V161.055C131.777 165.118 132.038 172.396 135.415 179.721C138.784 187.028 145.266 194.416 157.567 198.711L157.405 199.683C112.105 199.928 62.9881 199.181 38.4785 197.442C20.3232 196.153 5.70641 181.999 3.76367 163.913C-0.743361 121.954 -0.497697 79.4163 3.97559 36.3585C5.87272 18.0703 20.7165 3.77903 39.0742 2.63782C60.7037 1.2878 100.577 0.574935 140.114 0.507935L140.985 0.505981L140.547 1.25989C131.976 15.974 127.287 33.1467 127.852 51.2413L127.853 51.2491V51.257Z" fill="#E3D5CA" stroke="#E3D5CA"/>
<path d="M140.113 0.506836C179.505 0.428836 218.576 1.00888 238.926 2.29199C257.799 3.47751 272.972 18.3872 274.249 37.2559C277.148 80.0676 277.405 121.858 274.539 162.479C273.249 180.901 258.891 195.761 240.574 197.46L239.699 197.53C221.747 198.779 190.59 199.494 157.405 199.683L157.319 199.684L157.237 199.655C144.67 195.267 137.983 187.685 134.505 180.14C131.035 172.612 130.773 165.153 130.987 161.002C131.089 158.959 132.778 157.325 134.838 157.362C145.692 157.522 155.844 153.774 163.299 149.969C167.024 148.068 170.066 146.157 172.177 144.722C172.938 144.204 173.575 143.746 174.082 143.376C160.412 144.578 146.853 145.168 133.888 143.222C132.46 143.19 131.32 142.035 131.32 140.607V129.074L113.01 128.053C106.398 127.686 102.486 120.483 105.795 114.753L116.35 96.3623C124.047 82.9507 127.506 67.6189 126.874 52.1455V52.1436C126.863 51.8602 126.851 51.5662 126.851 51.2715C126.28 32.9833 131.02 15.6247 139.682 0.754883L139.827 0.507812L140.113 0.506836Z" fill="#D5BDAF" stroke="#D5BDAF"/>
<path d="M165.744 58.4449C168.722 58.445 171.3 60.7131 173.104 64.1158C174.919 67.5409 176.027 72.2382 176.027 77.399C176.027 82.5599 174.919 87.2572 173.104 90.6822C171.3 94.085 168.722 96.353 165.744 96.3531C162.767 96.3531 160.189 94.085 158.385 90.6822C156.569 87.2572 155.461 82.5599 155.461 77.399C155.461 72.2381 156.569 67.5409 158.385 64.1158C160.189 60.713 162.767 58.4449 165.744 58.4449Z" fill="#F5EBE0" stroke="#F5EBE0"/>
<path d="M105.098 58.4449C108.076 58.445 110.654 60.7131 112.458 64.1158C114.273 67.5409 115.381 72.2382 115.381 77.399C115.381 82.5599 114.273 87.2572 112.458 90.6822C110.654 94.085 108.076 96.353 105.098 96.3531C102.121 96.3531 99.5428 94.085 97.7389 90.6822C95.9232 87.2572 94.8151 82.5599 94.8151 77.399C94.8151 72.2381 95.9232 67.5409 97.7389 64.1158C99.5428 60.713 102.121 58.4449 105.098 58.4449Z" fill="#F5EBE0" stroke="#F5EBE0"/>
</svg>
